<!DOCTYPE svg PUBLIC "-//W3C//DTD SVG 1.1//EN" "http://www.w3.org/Graphics/SVG/1.1/DTD/svg11.dtd">
<!-- Uploaded to: SVG Repo, www.svgrepo.com, Transformed by: SVG Repo Mixer Tools -->
<svg width="256px" height="256px" viewBox="0 0 25.00 25.00" fill="none" xmlns="http://www.w3.org/2000/svg" stroke="#1C203D" stroke-width="1.225">
<g id="SVGRepo_bgCarrier" stroke-width="0"/>
<g id="SVGRepo_tracerCarrier" stroke-linecap="round" stroke-linejoin="round" stroke="#f8f7f7" stroke-width="1.8"> <path d="M7.5 12.5L7.07574 12.0757L6.65147 12.5L7.07574 12.9243L7.5 12.5ZM17.5 12.5L17.9243 12.9243L18.3485 12.5L17.9243 12.0757L17.5 12.5ZM11.4243 15.5757L7.92426 12.0757L7.07574 12.9243L10.5757 16.4243L11.4243 15.5757ZM7.92426 12.9243L11.4243 9.42426L10.5757 8.57574L7.07574 12.0757L7.92426 12.9243ZM13.5757 9.42426L17.0757 12.9243L17.9243 12.0757L14.4243 8.57574L13.5757 9.42426ZM17.0757 12.0757L13.5757 15.5757L14.4243 16.4243L17.9243 12.9243L17.0757 12.0757Z" fill="#121923"/> </g>
<g id="SVGRepo_iconCarrier"> <path d="M7.5 12.5L7.07574 12.0757L6.65147 12.5L7.07574 12.9243L7.5 12.5ZM17.5 12.5L17.9243 12.9243L18.3485 12.5L17.9243 12.0757L17.5 12.5ZM11.4243 15.5757L7.92426 12.0757L7.07574 12.9243L10.5757 16.4243L11.4243 15.5757ZM7.92426 12.9243L11.4243 9.42426L10.5757 8.57574L7.07574 12.0757L7.92426 12.9243ZM13.5757 9.42426L17.0757 12.9243L17.9243 12.0757L14.4243 8.57574L13.5757 9.42426ZM17.0757 12.0757L13.5757 15.5757L14.4243 16.4243L17.9243 12.9243L17.0757 12.0757Z" fill="#121923"/> </g>
</svg>